<mxfile host="app.diagrams.net" modified="2023-12-26T22:37:26.887Z" agent="Mozilla/5.0 (Windows NT 10.0; Win64; x64) AppleWebKit/537.36 (KHTML, like Gecko) Chrome/120.0.0.0 Safari/537.36" etag="n5qzzvEz-nBrpi9TP6ND" version="22.1.12" type="github">
  <diagram name="Page-1" id="3FhCOFggOv14kja2rQ2b">
    <mxGraphModel dx="794" dy="1546" grid="1" gridSize="10" guides="1" tooltips="1" connect="1" arrows="1" fold="1" page="1" pageScale="1" pageWidth="850" pageHeight="1100" math="0" shadow="0">
      <root>
        <mxCell id="0" />
        <mxCell id="1" parent="0" />
        <mxCell id="V-f3WTPPYMWT1GgKtOs5-5" value="" style="rounded=0;whiteSpace=wrap;html=1;" vertex="1" parent="1">
          <mxGeometry x="80" y="40" width="150" height="160" as="geometry" />
        </mxCell>
        <mxCell id="V-f3WTPPYMWT1GgKtOs5-6" value="&lt;font style=&quot;font-size: 24px;&quot;&gt;&lt;b&gt;Docker Client&lt;/b&gt;&lt;/font&gt;" style="text;html=1;strokeColor=none;fillColor=none;align=center;verticalAlign=middle;whiteSpace=wrap;rounded=0;" vertex="1" parent="1">
          <mxGeometry y="-110" width="170" height="30" as="geometry" />
        </mxCell>
        <mxCell id="V-f3WTPPYMWT1GgKtOs5-7" value="docker pull" style="text;html=1;strokeColor=none;fillColor=none;align=center;verticalAlign=middle;whiteSpace=wrap;rounded=0;" vertex="1" parent="1">
          <mxGeometry x="110" y="90" width="90" height="30" as="geometry" />
        </mxCell>
        <mxCell id="V-f3WTPPYMWT1GgKtOs5-8" value="docker build" style="text;html=1;strokeColor=none;fillColor=none;align=center;verticalAlign=middle;whiteSpace=wrap;rounded=0;" vertex="1" parent="1">
          <mxGeometry x="105" y="60" width="100" height="30" as="geometry" />
        </mxCell>
        <mxCell id="V-f3WTPPYMWT1GgKtOs5-10" value="docker run" style="text;html=1;strokeColor=none;fillColor=none;align=center;verticalAlign=middle;whiteSpace=wrap;rounded=0;" vertex="1" parent="1">
          <mxGeometry x="125" y="120" width="60" height="30" as="geometry" />
        </mxCell>
        <mxCell id="V-f3WTPPYMWT1GgKtOs5-11" value="&lt;b&gt;Client&lt;/b&gt;" style="text;html=1;strokeColor=none;fillColor=none;align=center;verticalAlign=middle;whiteSpace=wrap;rounded=0;" vertex="1" parent="1">
          <mxGeometry x="80" y="40" width="60" height="30" as="geometry" />
        </mxCell>
        <mxCell id="V-f3WTPPYMWT1GgKtOs5-13" value="" style="rounded=0;whiteSpace=wrap;html=1;" vertex="1" parent="1">
          <mxGeometry x="400" width="215" height="460" as="geometry" />
        </mxCell>
        <mxCell id="V-f3WTPPYMWT1GgKtOs5-15" value="&lt;b&gt;DOCKER_HOST&lt;/b&gt;" style="text;html=1;strokeColor=none;fillColor=none;align=center;verticalAlign=middle;whiteSpace=wrap;rounded=0;" vertex="1" parent="1">
          <mxGeometry x="425" width="60" height="30" as="geometry" />
        </mxCell>
        <mxCell id="V-f3WTPPYMWT1GgKtOs5-16" value="" style="rounded=0;whiteSpace=wrap;html=1;" vertex="1" parent="1">
          <mxGeometry x="410" y="30" width="190" height="60" as="geometry" />
        </mxCell>
        <mxCell id="V-f3WTPPYMWT1GgKtOs5-14" value="Docker daemon" style="text;html=1;strokeColor=none;fillColor=none;align=center;verticalAlign=middle;whiteSpace=wrap;rounded=0;" vertex="1" parent="1">
          <mxGeometry x="452.5" y="45" width="110" height="30" as="geometry" />
        </mxCell>
        <mxCell id="V-f3WTPPYMWT1GgKtOs5-23" value="" style="rounded=0;whiteSpace=wrap;html=1;" vertex="1" parent="1">
          <mxGeometry x="420" y="120" width="90" height="310" as="geometry" />
        </mxCell>
        <mxCell id="V-f3WTPPYMWT1GgKtOs5-17" value="Container 1" style="sketch=0;outlineConnect=0;fontColor=#232F3E;gradientColor=none;strokeColor=#232F3E;fillColor=#ffffff;dashed=0;verticalLabelPosition=bottom;verticalAlign=top;align=center;html=1;fontSize=12;fontStyle=0;aspect=fixed;shape=mxgraph.aws4.resourceIcon;resIcon=mxgraph.aws4.container_1;" vertex="1" parent="1">
          <mxGeometry x="435" y="150" width="60" height="60" as="geometry" />
        </mxCell>
        <mxCell id="V-f3WTPPYMWT1GgKtOs5-21" value="Container 2" style="sketch=0;outlineConnect=0;fontColor=#232F3E;gradientColor=none;strokeColor=#232F3E;fillColor=#ffffff;dashed=0;verticalLabelPosition=bottom;verticalAlign=top;align=center;html=1;fontSize=12;fontStyle=0;aspect=fixed;shape=mxgraph.aws4.resourceIcon;resIcon=mxgraph.aws4.container_1;" vertex="1" parent="1">
          <mxGeometry x="435" y="245" width="60" height="60" as="geometry" />
        </mxCell>
        <mxCell id="V-f3WTPPYMWT1GgKtOs5-22" value="Container N" style="sketch=0;outlineConnect=0;fontColor=#232F3E;gradientColor=none;strokeColor=#232F3E;fillColor=#ffffff;dashed=0;verticalLabelPosition=bottom;verticalAlign=top;align=center;html=1;fontSize=12;fontStyle=0;aspect=fixed;shape=mxgraph.aws4.resourceIcon;resIcon=mxgraph.aws4.container_1;" vertex="1" parent="1">
          <mxGeometry x="435" y="350" width="60" height="60" as="geometry" />
        </mxCell>
        <mxCell id="V-f3WTPPYMWT1GgKtOs5-24" value="&lt;b&gt;Containers&lt;/b&gt;" style="text;html=1;strokeColor=none;fillColor=none;align=center;verticalAlign=middle;whiteSpace=wrap;rounded=0;" vertex="1" parent="1">
          <mxGeometry x="425" y="120" width="60" height="30" as="geometry" />
        </mxCell>
        <mxCell id="V-f3WTPPYMWT1GgKtOs5-25" value="" style="endArrow=none;html=1;rounded=0;exitX=1;exitY=0.5;exitDx=0;exitDy=0;entryX=0;entryY=0.5;entryDx=0;entryDy=0;" edge="1" parent="1" source="V-f3WTPPYMWT1GgKtOs5-8" target="V-f3WTPPYMWT1GgKtOs5-16">
          <mxGeometry width="50" height="50" relative="1" as="geometry">
            <mxPoint x="380" y="250" as="sourcePoint" />
            <mxPoint x="430" y="200" as="targetPoint" />
          </mxGeometry>
        </mxCell>
        <mxCell id="V-f3WTPPYMWT1GgKtOs5-26" value="" style="endArrow=none;html=1;rounded=0;exitX=1;exitY=0.5;exitDx=0;exitDy=0;entryX=0;entryY=0.5;entryDx=0;entryDy=0;" edge="1" parent="1" source="V-f3WTPPYMWT1GgKtOs5-7" target="V-f3WTPPYMWT1GgKtOs5-16">
          <mxGeometry width="50" height="50" relative="1" as="geometry">
            <mxPoint x="380" y="250" as="sourcePoint" />
            <mxPoint x="430" y="200" as="targetPoint" />
          </mxGeometry>
        </mxCell>
        <mxCell id="V-f3WTPPYMWT1GgKtOs5-27" value="" style="endArrow=none;html=1;rounded=0;exitX=1;exitY=0.5;exitDx=0;exitDy=0;" edge="1" parent="1" source="V-f3WTPPYMWT1GgKtOs5-10">
          <mxGeometry width="50" height="50" relative="1" as="geometry">
            <mxPoint x="380" y="250" as="sourcePoint" />
            <mxPoint x="410" y="60" as="targetPoint" />
          </mxGeometry>
        </mxCell>
      </root>
    </mxGraphModel>
  </diagram>
</mxfile>
